<svg width="657" height="326" viewBox="0 0 657 326" fill="none" xmlns="http://www.w3.org/2000/svg">
<path d="M215.675 296.89L224.325 237.61C226.526 222.526 214.831 209 199.587 209H29.2765C14.0796 209 2.39793 195.554 4.52189 180.506L24.2827 40.5059C26.0237 28.171 36.5801 19 49.0373 19H535.515C548.087 19 558.703 28.336 560.31 40.8048L576.597 167.195C578.204 179.664 588.82 189 601.392 189H627.041C642.609 189 654.391 203.075 651.65 218.4L636.183 304.9C634.052 316.821 623.683 325.5 611.574 325.5H240.413C225.169 325.5 213.474 311.974 215.675 296.89Z" fill="#23262D"/>
<g filter="url(#filter0_d_602_17)">
<path d="M350.539 211H255.801C251.88 211 248.537 213.842 247.906 217.713L235.514 293.713C234.721 298.58 238.478 303 243.41 303H337.735C341.64 303 344.975 300.18 345.624 296.329L358.428 220.329C359.25 215.449 355.489 211 350.539 211Z" fill="white"/>
</g>
<g filter="url(#filter1_d_602_17)">
<path d="M487.539 211H392.801C388.88 211 385.537 213.842 384.906 217.713L372.514 293.713C371.721 298.58 375.478 303 380.41 303H474.735C478.64 303 481.975 300.18 482.624 296.329L495.428 220.329C496.25 215.449 492.489 211 487.539 211Z" fill="#D16738"/>
</g>
<g filter="url(#filter2_d_602_17)">
<path d="M624.539 211H529.801C525.88 211 522.537 213.842 521.906 217.713L509.514 293.713C508.721 298.58 512.478 303 517.41 303H611.735C615.64 303 618.975 300.18 619.624 296.329L632.428 220.329C633.25 215.449 629.489 211 624.539 211Z" fill="#549B4B"/>
</g>
<path d="M141.139 44.1818H169.432L155.057 131.085C153.445 140.843 149.721 149.381 143.884 156.699C138.046 164.017 130.619 169.723 121.602 173.818C112.585 177.869 102.523 179.895 91.4148 179.895C80.3068 179.895 70.9413 177.869 63.3182 173.818C55.6951 169.723 50.1847 164.017 46.7869 156.699C43.3892 149.381 42.4962 140.843 44.108 131.085L58.483 44.1818H86.7756L72.7273 128.668C71.9432 133.764 72.3352 138.295 73.9034 142.259C75.5152 146.223 78.1723 149.337 81.875 151.602C85.5777 153.867 90.1515 155 95.5966 155C101.085 155 106.051 153.867 110.494 151.602C114.981 149.337 118.662 146.223 121.537 142.259C124.455 138.295 126.307 133.764 127.091 128.668L141.139 44.1818ZM170.494 178L192.71 44.1818H245.505C255.611 44.1818 263.931 45.9678 270.465 49.5398C277.043 53.1117 281.66 58.1865 284.317 64.7642C287.018 71.2983 287.65 79.0085 286.212 87.8949C284.731 96.7812 281.53 104.404 276.607 110.764C271.728 117.124 265.369 122.025 257.528 125.466C249.73 128.864 240.692 130.562 230.411 130.562H195.062L198.982 107.824H229.692C235.094 107.824 239.711 107.083 243.545 105.602C247.378 104.121 250.406 101.9 252.627 98.9375C254.892 95.9754 256.373 92.2945 257.07 87.8949C257.811 83.4081 257.549 79.6619 256.286 76.6562C255.023 73.607 252.736 71.2983 249.425 69.7301C246.115 68.1184 241.759 67.3125 236.357 67.3125H217.278L198.786 178H170.494ZM252.823 117.102L276.019 178H244.786L222.309 117.102H252.823ZM426.467 44.1818L404.251 178H379.813L335.708 93.7756H334.663L320.614 178H292.322L314.538 44.1818H339.367L383.276 128.341H384.387L398.305 44.1818H426.467ZM450.692 178H420.374L488.786 44.1818H525.246L549.161 178H518.842L502.572 74.7614H501.527L450.692 178ZM457.618 125.401H529.232L525.442 147.486H453.828L457.618 125.401Z" fill="white"/>
<defs>
<filter id="filter0_d_602_17" x="235.408" y="211" width="131.133" height="103" filterUnits="userSpaceOnUse" color-interpolation-filters="sRGB">
<feFlood flood-opacity="0" result="BackgroundImageFix"/>
<feColorMatrix in="SourceAlpha" type="matrix" values="0 0 0 0 0 0 0 0 0 0 0 0 0 0 0 0 0 0 127 0" result="hardAlpha"/>
<feOffset dx="4" dy="7"/>
<feGaussianBlur stdDeviation="2"/>
<feComposite in2="hardAlpha" operator="out"/>
<feColorMatrix type="matrix" values="0 0 0 0 0 0 0 0 0 0 0 0 0 0 0 0 0 0 0.25 0"/>
<feBlend mode="normal" in2="BackgroundImageFix" result="effect1_dropShadow_602_17"/>
<feBlend mode="normal" in="SourceGraphic" in2="effect1_dropShadow_602_17" result="shape"/>
</filter>
<filter id="filter1_d_602_17" x="372.408" y="211" width="131.133" height="103" filterUnits="userSpaceOnUse" color-interpolation-filters="sRGB">
<feFlood flood-opacity="0" result="BackgroundImageFix"/>
<feColorMatrix in="SourceAlpha" type="matrix" values="0 0 0 0 0 0 0 0 0 0 0 0 0 0 0 0 0 0 127 0" result="hardAlpha"/>
<feOffset dx="4" dy="7"/>
<feGaussianBlur stdDeviation="2"/>
<feComposite in2="hardAlpha" operator="out"/>
<feColorMatrix type="matrix" values="0 0 0 0 0 0 0 0 0 0 0 0 0 0 0 0 0 0 0.25 0"/>
<feBlend mode="normal" in2="BackgroundImageFix" result="effect1_dropShadow_602_17"/>
<feBlend mode="normal" in="SourceGraphic" in2="effect1_dropShadow_602_17" result="shape"/>
</filter>
<filter id="filter2_d_602_17" x="509.408" y="211" width="131.133" height="103" filterUnits="userSpaceOnUse" color-interpolation-filters="sRGB">
<feFlood flood-opacity="0" result="BackgroundImageFix"/>
<feColorMatrix in="SourceAlpha" type="matrix" values="0 0 0 0 0 0 0 0 0 0 0 0 0 0 0 0 0 0 127 0" result="hardAlpha"/>
<feOffset dx="4" dy="7"/>
<feGaussianBlur stdDeviation="2"/>
<feComposite in2="hardAlpha" operator="out"/>
<feColorMatrix type="matrix" values="0 0 0 0 0 0 0 0 0 0 0 0 0 0 0 0 0 0 0.25 0"/>
<feBlend mode="normal" in2="BackgroundImageFix" result="effect1_dropShadow_602_17"/>
<feBlend mode="normal" in="SourceGraphic" in2="effect1_dropShadow_602_17" result="shape"/>
</filter>
</defs>
</svg>
